<svg width="23" height="24" viewBox="0 0 23 24" fill="none" xmlns="http://www.w3.org/2000/svg">
<path d="M0.951599 10.75C0.951599 13.4022 2.00517 15.9457 3.88053 17.8211C5.7559 19.6964 8.29943 20.75 10.9516 20.75C13.6038 20.75 16.1473 19.6964 18.0227 17.8211C19.898 15.9457 20.9516 13.4022 20.9516 10.75C20.9516 8.09784 19.898 5.5543 18.0227 3.67893C16.1473 1.80357 13.6038 0.75 10.9516 0.75C8.29943 0.75 5.7559 1.80357 3.88053 3.67893C2.00517 5.5543 0.951599 8.09784 0.951599 10.75Z" fill="#FFE500"/>
<path d="M10.9516 0.75C8.97379 0.75 7.04039 1.33649 5.3959 2.4353C3.75141 3.53412 2.46968 5.0959 1.71281 6.92317C0.955932 8.75043 0.757899 10.7611 1.14375 12.7009C1.5296 14.6407 2.48201 16.4225 3.88054 17.8211C5.27906 19.2196 7.06089 20.172 9.0007 20.5579C10.9405 20.9437 12.9512 20.7457 14.7784 19.9888C16.6057 19.2319 18.1675 17.9502 19.2663 16.3057C20.3651 14.6612 20.9516 12.7278 20.9516 10.75C20.9516 8.09784 19.898 5.5543 18.0227 3.67893C16.1473 1.80357 13.6038 0.75 10.9516 0.75ZM10.9516 19.25C9.14685 19.25 7.38262 18.7148 5.88203 17.7122C4.38143 16.7095 3.21185 15.2844 2.5212 13.617C1.83055 11.9496 1.64985 10.1149 2.00194 8.3448C2.35403 6.57472 3.2231 4.9488 4.49925 3.67265C5.77541 2.3965 7.40133 1.52742 9.1714 1.17533C10.9415 0.823244 12.7762 1.00395 14.4436 1.6946C16.111 2.38525 17.5361 3.55482 18.5388 5.05542C19.5414 6.55602 20.0766 8.32025 20.0766 10.125C20.0766 12.5451 19.1152 14.8661 17.404 16.5773C15.6927 18.2886 13.3717 19.25 10.9516 19.25Z" fill="#EBCB00"/>
<path d="M7.9516 2.75C7.9516 2.94891 8.26767 3.13968 8.83028 3.28033C9.39289 3.42098 10.1559 3.5 10.9516 3.5C11.7472 3.5 12.5103 3.42098 13.0729 3.28033C13.6355 3.13968 13.9516 2.94891 13.9516 2.75C13.9516 2.55109 13.6355 2.36032 13.0729 2.21967C12.5103 2.07902 11.7472 2 10.9516 2C10.1559 2 9.39289 2.07902 8.83028 2.21967C8.26767 2.36032 7.9516 2.55109 7.9516 2.75Z" fill="#FFF48C"/>
<path opacity="0.15" d="M2.9516 22.75C2.9516 22.9489 3.79445 23.1397 5.29474 23.2803C6.79504 23.421 8.82987 23.5 10.9516 23.5C13.0733 23.5 15.1082 23.421 16.6085 23.2803C18.1087 23.1397 18.9516 22.9489 18.9516 22.75C18.9516 22.5511 18.1087 22.3603 16.6085 22.2197C15.1082 22.079 13.0733 22 10.9516 22C8.82987 22 6.79504 22.079 5.29474 22.2197C3.79445 22.3603 2.9516 22.5511 2.9516 22.75Z" fill="#45413C"/>
<path d="M0.951599 10.75C0.951599 13.4022 2.00517 15.9457 3.88053 17.8211C5.7559 19.6964 8.29943 20.75 10.9516 20.75C13.6038 20.75 16.1473 19.6964 18.0227 17.8211C19.898 15.9457 20.9516 13.4022 20.9516 10.75C20.9516 8.09784 19.898 5.5543 18.0227 3.67893C16.1473 1.80357 13.6038 0.75 10.9516 0.75C8.29943 0.75 5.7559 1.80357 3.88053 3.67893C2.00517 5.5543 0.951599 8.09784 0.951599 10.75V10.75Z" stroke="#45413C" stroke-width="0.5" stroke-linecap="round" stroke-linejoin="round"/>
<path d="M22.7016 16.75C22.7016 17.413 22.4382 18.0489 21.9694 18.5178C21.5005 18.9866 20.8646 19.25 20.2016 19.25C19.5386 19.25 18.9027 18.9866 18.4338 18.5178C17.965 18.0489 17.7016 17.413 17.7016 16.75C17.7016 15.37 20.2016 11.25 20.2016 11.25C20.2016 11.25 22.7016 15.37 22.7016 16.75Z" fill="#00B8F0"/>
<path d="M20.2016 18C19.6548 17.9973 19.1241 17.8153 18.6906 17.4821C18.2571 17.1488 17.9448 16.6827 17.8016 16.155C17.7419 16.348 17.7082 16.5481 17.7016 16.75C17.7016 17.4131 17.965 18.049 18.4338 18.5178C18.9027 18.9866 19.5386 19.25 20.2016 19.25C20.8646 19.25 21.5005 18.9866 21.9694 18.5178C22.4382 18.049 22.7016 17.4131 22.7016 16.75C22.6949 16.5481 22.6613 16.348 22.6016 16.155C22.4584 16.6827 22.1461 17.1488 21.7126 17.4821C21.2791 17.8153 20.7484 17.9973 20.2016 18Z" fill="#009FD9"/>
<path d="M22.7016 16.75C22.7016 17.413 22.4382 18.0489 21.9694 18.5178C21.5005 18.9866 20.8646 19.25 20.2016 19.25C19.5386 19.25 18.9027 18.9866 18.4338 18.5178C17.965 18.0489 17.7016 17.413 17.7016 16.75C17.7016 15.37 20.2016 11.25 20.2016 11.25C20.2016 11.25 22.7016 15.37 22.7016 16.75Z" stroke="#45413C" stroke-width="0.5" stroke-linecap="round" stroke-linejoin="round"/>
<path d="M18.2016 13.25C18.2016 13.665 17.6416 14 16.9516 14C16.2616 14 15.7016 13.665 15.7016 13.25C15.7016 12.835 16.2616 12.5 16.9516 12.5C17.6416 12.5 18.2016 12.835 18.2016 13.25Z" fill="#FFAA54"/>
<path d="M3.7016 13.25C3.7016 13.665 4.2616 14 4.9516 14C5.6416 14 6.2016 13.665 6.2016 13.25C6.2016 12.835 5.6416 12.5 4.9516 12.5C4.2616 12.5 3.7016 12.835 3.7016 13.25Z" fill="#FFAA54"/>
<path d="M8.4516 15.75C9.19161 15.2555 10.0616 14.9916 10.9516 14.9916C11.8416 14.9916 12.7116 15.2555 13.4516 15.75" stroke="#45413C" stroke-width="0.5" stroke-linecap="round"/>
<path d="M3.9516 11.125C3.9516 10.8929 4.04379 10.6704 4.20788 10.5063C4.37197 10.3422 4.59453 10.25 4.8266 10.25C5.05866 10.25 5.28122 10.3422 5.44532 10.5063C5.60941 10.6704 5.7016 10.8929 5.7016 11.125" stroke="#45413C" stroke-width="0.5" stroke-linecap="round" stroke-linejoin="round"/>
<path d="M16.2016 11.125C16.2016 10.8929 16.2938 10.6704 16.4579 10.5063C16.622 10.3422 16.8445 10.25 17.0766 10.25C17.3087 10.25 17.5312 10.3422 17.6953 10.5063C17.8594 10.6704 17.9516 10.8929 17.9516 11.125" stroke="#45413C" stroke-width="0.5" stroke-linecap="round" stroke-linejoin="round"/>
</svg>
