<svg width="22" height="24" viewBox="0 0 22 24" fill="none" xmlns="http://www.w3.org/2000/svg">
<path d="M0.951599 10.75C0.951599 13.4022 2.00517 15.9457 3.88053 17.8211C5.7559 19.6964 8.29943 20.75 10.9516 20.75C13.6038 20.75 16.1473 19.6964 18.0227 17.8211C19.898 15.9457 20.9516 13.4022 20.9516 10.75C20.9516 8.09784 19.898 5.5543 18.0227 3.67893C16.1473 1.80357 13.6038 0.75 10.9516 0.75C8.29943 0.75 5.7559 1.80357 3.88053 3.67893C2.00517 5.5543 0.951599 8.09784 0.951599 10.75Z" fill="#FFE500"/>
<path d="M10.9516 0.75C8.97379 0.75 7.04039 1.33649 5.3959 2.4353C3.75141 3.53412 2.46968 5.0959 1.71281 6.92317C0.955932 8.75043 0.757899 10.7611 1.14375 12.7009C1.5296 14.6407 2.48201 16.4225 3.88054 17.8211C5.27906 19.2196 7.06089 20.172 9.0007 20.5579C10.9405 20.9437 12.9512 20.7457 14.7784 19.9888C16.6057 19.2319 18.1675 17.9502 19.2663 16.3057C20.3651 14.6612 20.9516 12.7278 20.9516 10.75C20.9516 8.09784 19.898 5.5543 18.0227 3.67893C16.1473 1.80357 13.6038 0.75 10.9516 0.75ZM10.9516 19.25C9.14685 19.25 7.38262 18.7148 5.88203 17.7122C4.38143 16.7095 3.21185 15.2844 2.5212 13.617C1.83055 11.9496 1.64985 10.1149 2.00194 8.3448C2.35403 6.57472 3.2231 4.9488 4.49925 3.67265C5.77541 2.3965 7.40133 1.52742 9.1714 1.17533C10.9415 0.823244 12.7762 1.00395 14.4436 1.6946C16.111 2.38525 17.5361 3.55482 18.5388 5.05542C19.5414 6.55602 20.0766 8.32025 20.0766 10.125C20.0766 12.5451 19.1152 14.8661 17.404 16.5773C15.6927 18.2886 13.3717 19.25 10.9516 19.25Z" fill="#EBCB00"/>
<path d="M7.9516 2.75C7.9516 2.94891 8.26767 3.13968 8.83028 3.28033C9.39289 3.42098 10.1559 3.5 10.9516 3.5C11.7472 3.5 12.5103 3.42098 13.0729 3.28033C13.6355 3.13968 13.9516 2.94891 13.9516 2.75C13.9516 2.55109 13.6355 2.36032 13.0729 2.21967C12.5103 2.07902 11.7472 2 10.9516 2C10.1559 2 9.39289 2.07902 8.83028 2.21967C8.26767 2.36032 7.9516 2.55109 7.9516 2.75Z" fill="#FFF48C"/>
<path opacity="0.15" d="M2.9516 22.75C2.9516 22.9489 3.79445 23.1397 5.29474 23.2803C6.79504 23.421 8.82987 23.5 10.9516 23.5C13.0733 23.5 15.1082 23.421 16.6085 23.2803C18.1087 23.1397 18.9516 22.9489 18.9516 22.75C18.9516 22.5511 18.1087 22.3603 16.6085 22.2197C15.1082 22.079 13.0733 22 10.9516 22C8.82987 22 6.79504 22.079 5.29474 22.2197C3.79445 22.3603 2.9516 22.5511 2.9516 22.75Z" fill="#45413C"/>
<path d="M0.951599 10.75C0.951599 13.4022 2.00517 15.9457 3.88053 17.8211C5.7559 19.6964 8.29943 20.75 10.9516 20.75C13.6038 20.75 16.1473 19.6964 18.0227 17.8211C19.898 15.9457 20.9516 13.4022 20.9516 10.75C20.9516 8.09784 19.898 5.5543 18.0227 3.67893C16.1473 1.80357 13.6038 0.75 10.9516 0.75C8.29943 0.75 5.7559 1.80357 3.88053 3.67893C2.00517 5.5543 0.951599 8.09784 0.951599 10.75V10.75Z" stroke="#45413C" stroke-width="0.5" stroke-linecap="round" stroke-linejoin="round"/>
<path d="M18.2016 13.25C18.2016 13.665 17.6416 14 16.9516 14C16.2616 14 15.7016 13.665 15.7016 13.25C15.7016 12.835 16.2616 12.5 16.9516 12.5C17.6416 12.5 18.2016 12.835 18.2016 13.25Z" fill="#FFAA54"/>
<path d="M3.7016 13.25C3.7016 13.665 4.2616 14 4.9516 14C5.6416 14 6.2016 13.665 6.2016 13.25C6.2016 12.835 5.6416 12.5 4.9516 12.5C4.2616 12.5 3.7016 12.835 3.7016 13.25Z" fill="#FFAA54"/>
<path d="M10.9516 19.25C12.2675 19.2787 13.5493 18.8302 14.5602 17.9875C15.5712 17.1447 16.243 15.9645 16.4516 14.665C16.4602 14.5877 16.4507 14.5096 16.4237 14.4367C16.3968 14.3638 16.3533 14.2981 16.2966 14.245C16.2353 14.1905 16.1627 14.1502 16.0841 14.1269C16.0055 14.1036 15.9227 14.0978 15.8416 14.11C12.6057 14.63 9.30752 14.63 6.07161 14.11C5.99051 14.0978 5.90773 14.1036 5.8291 14.1269C5.75048 14.1502 5.67794 14.1905 5.61661 14.245C5.55992 14.2981 5.51639 14.3638 5.48948 14.4367C5.46258 14.5096 5.45303 14.5877 5.46161 14.665C5.66997 15.9628 6.34034 17.1416 7.34921 17.9841C8.35807 18.8267 9.63745 19.2762 10.9516 19.25Z" fill="white" stroke="#45413C" stroke-width="0.5" stroke-linecap="round" stroke-linejoin="round"/>
<path d="M15.9516 16.25C14.3389 16.779 12.6486 17.0325 10.9516 17C9.25464 17.0325 7.56434 16.779 5.9516 16.25" fill="white"/>
<path d="M15.9516 16.25C14.3389 16.779 12.6486 17.0325 10.9516 17C9.25464 17.0325 7.56434 16.779 5.9516 16.25" stroke="#45413C" stroke-width="0.5" stroke-linecap="round" stroke-linejoin="round"/>
<path d="M10.9516 14.5V19.25" stroke="#45413C" stroke-width="0.5" stroke-linecap="round" stroke-linejoin="round"/>
<path d="M7.70159 14.33C7.70159 14.63 7.67659 17.205 8.23159 18.575" stroke="#45413C" stroke-width="0.5" stroke-linecap="round" stroke-linejoin="round"/>
<path d="M14.2016 14.33C14.2016 14.63 14.2266 17.205 13.6716 18.575" stroke="#45413C" stroke-width="0.5" stroke-linecap="round" stroke-linejoin="round"/>
<path d="M13.2016 7.25C13.2016 8.31087 13.623 9.32828 14.3732 10.0784C15.1233 10.8286 16.1407 11.25 17.2016 11.25C18.2625 11.25 19.2799 10.8286 20.03 10.0784C20.7802 9.32828 21.2016 8.31087 21.2016 7.25C21.2016 6.18913 20.7802 5.17172 20.03 4.42157C19.2799 3.67143 18.2625 3.25 17.2016 3.25C16.1407 3.25 15.1233 3.67143 14.3732 4.42157C13.623 5.17172 13.2016 6.18913 13.2016 7.25Z" fill="white"/>
<path d="M2.7016 8.75C2.7016 9.41304 2.96499 10.0489 3.43383 10.5178C3.90267 10.9866 4.53856 11.25 5.2016 11.25C5.86464 11.25 6.50052 10.9866 6.96937 10.5178C7.43821 10.0489 7.7016 9.41304 7.7016 8.75C7.7016 8.08696 7.43821 7.45107 6.96937 6.98223C6.50052 6.51339 5.86464 6.25 5.2016 6.25C4.53856 6.25 3.90267 6.51339 3.43383 6.98223C2.96499 7.45107 2.7016 8.08696 2.7016 8.75Z" fill="white"/>
<path d="M17.2016 9.75C16.2716 9.74906 15.3709 9.42406 14.6546 8.83091C13.9382 8.23777 13.451 7.41354 13.2766 6.5C13.2264 6.74684 13.2013 6.99811 13.2016 7.25C13.2016 8.31087 13.623 9.32828 14.3732 10.0784C15.1233 10.8286 16.1407 11.25 17.2016 11.25C18.2625 11.25 19.2799 10.8286 20.03 10.0784C20.7802 9.32828 21.2016 8.31087 21.2016 7.25C21.2019 6.99811 21.1768 6.74684 21.1266 6.5C20.9522 7.41354 20.465 8.23777 19.7486 8.83091C19.0323 9.42406 18.1316 9.74906 17.2016 9.75Z" fill="#F0F0F0"/>
<path d="M5.2016 10.31C4.62018 10.3099 4.05698 10.1072 3.60891 9.73668C3.16083 9.36617 2.85591 8.85108 2.7466 8.28003C2.719 8.43523 2.70395 8.59241 2.7016 8.75003C2.7016 9.41307 2.96499 10.049 3.43383 10.5178C3.90267 10.9866 4.53856 11.25 5.2016 11.25C5.86464 11.25 6.50052 10.9866 6.96937 10.5178C7.43821 10.049 7.7016 9.41307 7.7016 8.75003C7.69925 8.59241 7.6842 8.43523 7.6566 8.28003C7.54729 8.85108 7.24237 9.36617 6.79429 9.73668C6.34622 10.1072 5.78302 10.3099 5.2016 10.31Z" fill="#F0F0F0"/>
<path d="M13.2016 7.25C13.2016 8.31087 13.623 9.32828 14.3732 10.0784C15.1233 10.8286 16.1407 11.25 17.2016 11.25C18.2625 11.25 19.2799 10.8286 20.03 10.0784C20.7802 9.32828 21.2016 8.31087 21.2016 7.25C21.2016 6.18913 20.7802 5.17172 20.03 4.42157C19.2799 3.67143 18.2625 3.25 17.2016 3.25C16.1407 3.25 15.1233 3.67143 14.3732 4.42157C13.623 5.17172 13.2016 6.18913 13.2016 7.25V7.25Z" stroke="#45413C" stroke-width="0.5" stroke-linecap="round" stroke-linejoin="round"/>
<path d="M2.7016 8.75C2.7016 9.41304 2.96499 10.0489 3.43383 10.5178C3.90267 10.9866 4.53856 11.25 5.2016 11.25C5.86464 11.25 6.50053 10.9866 6.96937 10.5178C7.43821 10.0489 7.7016 9.41304 7.7016 8.75C7.7016 8.08696 7.43821 7.45107 6.96937 6.98223C6.50053 6.51339 5.86464 6.25 5.2016 6.25C4.53856 6.25 3.90267 6.51339 3.43383 6.98223C2.96499 7.45107 2.7016 8.08696 2.7016 8.75V8.75Z" stroke="#45413C" stroke-width="0.5" stroke-linecap="round" stroke-linejoin="round"/>
<path d="M5.7016 8.75C5.7016 8.84889 5.67227 8.94556 5.61733 9.02779C5.56239 9.11001 5.4843 9.1741 5.39294 9.21194C5.30158 9.24978 5.20104 9.25969 5.10405 9.24039C5.00706 9.2211 4.91797 9.17348 4.84805 9.10355C4.77812 9.03363 4.7305 8.94454 4.71121 8.84755C4.69191 8.75056 4.70182 8.65002 4.73966 8.55866C4.7775 8.4673 4.84159 8.38921 4.92381 8.33426C5.00604 8.27932 5.10271 8.25 5.2016 8.25C5.33421 8.25 5.46138 8.30268 5.55515 8.39645C5.64892 8.49021 5.7016 8.61739 5.7016 8.75Z" fill="#45413C" stroke="#45413C" stroke-width="0.5" stroke-linecap="round" stroke-linejoin="round"/>
<path d="M16.7016 7.25C16.7016 7.34889 16.7309 7.44556 16.7859 7.52779C16.8408 7.61001 16.9189 7.6741 17.0103 7.71194C17.1016 7.74978 17.2022 7.75969 17.2991 7.74039C17.3961 7.7211 17.4852 7.67348 17.5552 7.60355C17.6251 7.53363 17.6727 7.44454 17.692 7.34755C17.7113 7.25055 17.7014 7.15002 17.6635 7.05866C17.6257 6.9673 17.5616 6.88921 17.4794 6.83427C17.3972 6.77932 17.3005 6.75 17.2016 6.75C17.069 6.75 16.9418 6.80268 16.848 6.89645C16.7543 6.99021 16.7016 7.11739 16.7016 7.25Z" fill="#45413C" stroke="#45413C" stroke-width="0.5" stroke-linecap="round" stroke-linejoin="round"/>
</svg>
