<svg width="22" height="24" viewBox="0 0 22 24" fill="none" xmlns="http://www.w3.org/2000/svg">
<path opacity="0.15" d="M2.9516 22.75C2.9516 22.9489 3.79445 23.1397 5.29474 23.2803C6.79504 23.421 8.82987 23.5 10.9516 23.5C13.0733 23.5 15.1082 23.421 16.6085 23.2803C18.1087 23.1397 18.9516 22.9489 18.9516 22.75C18.9516 22.5511 18.1087 22.3603 16.6085 22.2197C15.1082 22.079 13.0733 22 10.9516 22C8.82987 22 6.79504 22.079 5.29474 22.2197C3.79445 22.3603 2.9516 22.5511 2.9516 22.75Z" fill="#45413C"/>
<path d="M0.951599 10.75C0.951599 13.4022 2.00517 15.9457 3.88053 17.8211C5.7559 19.6964 8.29943 20.75 10.9516 20.75C13.6038 20.75 16.1473 19.6964 18.0227 17.8211C19.898 15.9457 20.9516 13.4022 20.9516 10.75C20.9516 8.09784 19.898 5.5543 18.0227 3.67893C16.1473 1.80357 13.6038 0.75 10.9516 0.75C8.29943 0.75 5.7559 1.80357 3.88053 3.67893C2.00517 5.5543 0.951599 8.09784 0.951599 10.75Z" fill="#FFE500"/>
<path d="M10.9516 0.75C8.97379 0.75 7.04039 1.33649 5.3959 2.4353C3.75141 3.53412 2.46968 5.0959 1.71281 6.92317C0.955932 8.75043 0.757899 10.7611 1.14375 12.7009C1.5296 14.6407 2.48201 16.4225 3.88054 17.8211C5.27906 19.2196 7.06089 20.172 9.0007 20.5579C10.9405 20.9437 12.9512 20.7457 14.7784 19.9888C16.6057 19.2319 18.1675 17.9502 19.2663 16.3057C20.3651 14.6612 20.9516 12.7278 20.9516 10.75C20.9516 8.09784 19.898 5.5543 18.0227 3.67893C16.1473 1.80357 13.6038 0.75 10.9516 0.75ZM10.9516 19.25C9.14685 19.25 7.38262 18.7148 5.88203 17.7122C4.38143 16.7095 3.21185 15.2844 2.5212 13.617C1.83055 11.9496 1.64985 10.1149 2.00194 8.3448C2.35403 6.57472 3.2231 4.9488 4.49925 3.67265C5.77541 2.3965 7.40133 1.52742 9.1714 1.17533C10.9415 0.823244 12.7762 1.00395 14.4436 1.6946C16.111 2.38525 17.5361 3.55482 18.5388 5.05542C19.5414 6.55602 20.0766 8.32025 20.0766 10.125C20.0766 12.5451 19.1152 14.8661 17.404 16.5773C15.6927 18.2886 13.3717 19.25 10.9516 19.25Z" fill="#EBCB00"/>
<path d="M7.9516 2.75C7.9516 2.94891 8.26767 3.13968 8.83028 3.28033C9.39289 3.42098 10.1559 3.5 10.9516 3.5C11.7472 3.5 12.5103 3.42098 13.0729 3.28033C13.6355 3.13968 13.9516 2.94891 13.9516 2.75C13.9516 2.55109 13.6355 2.36032 13.0729 2.21967C12.5103 2.07902 11.7472 2 10.9516 2C10.1559 2 9.39289 2.07902 8.83028 2.21967C8.26767 2.36032 7.9516 2.55109 7.9516 2.75Z" fill="#FFF48C"/>
<path d="M0.951599 10.75C0.951599 13.4022 2.00517 15.9457 3.88053 17.8211C5.7559 19.6964 8.29943 20.75 10.9516 20.75C13.6038 20.75 16.1473 19.6964 18.0227 17.8211C19.898 15.9457 20.9516 13.4022 20.9516 10.75C20.9516 8.09784 19.898 5.5543 18.0227 3.67893C16.1473 1.80357 13.6038 0.75 10.9516 0.75C8.29943 0.75 5.7559 1.80357 3.88053 3.67893C2.00517 5.5543 0.951599 8.09784 0.951599 10.75V10.75Z" stroke="#45413C" stroke-width="0.5" stroke-linecap="round" stroke-linejoin="round"/>
<path d="M18.2016 13.25C18.2016 13.665 17.6416 14 16.9516 14C16.2616 14 15.7016 13.665 15.7016 13.25C15.7016 12.835 16.2616 12.5 16.9516 12.5C17.6416 12.5 18.2016 12.835 18.2016 13.25Z" fill="#FFAA54"/>
<path d="M3.7016 13.25C3.7016 13.665 4.2616 14 4.9516 14C5.6416 14 6.2016 13.665 6.2016 13.25C6.2016 12.835 5.6416 12.5 4.9516 12.5C4.2616 12.5 3.7016 12.835 3.7016 13.25Z" fill="#FFAA54"/>
<path d="M15.0166 10.895L13.5166 11.69C13.4342 11.7331 13.3414 11.7524 13.2487 11.7456C13.1559 11.7389 13.0669 11.7065 12.9916 11.6519C12.9163 11.5974 12.8576 11.5229 12.8223 11.4369C12.787 11.3509 12.7764 11.2567 12.7916 11.165L13.0666 9.49999C13.0806 9.41961 13.0747 9.33704 13.0494 9.25947C13.0241 9.18191 12.9802 9.1117 12.9216 9.05499L11.6966 7.86499C11.626 7.80024 11.5756 7.71659 11.5512 7.62399C11.5268 7.53139 11.5295 7.43373 11.559 7.34262C11.5885 7.25151 11.6435 7.17079 11.7175 7.11005C11.7916 7.04931 11.8815 7.01111 11.9766 6.99999L13.6666 6.75499C13.7467 6.74296 13.8227 6.71164 13.888 6.66374C13.9533 6.61583 14.006 6.55277 14.0416 6.47999L14.8016 4.93499C14.8431 4.85178 14.9069 4.78179 14.986 4.73286C15.065 4.68394 15.1561 4.65802 15.2491 4.65802C15.3421 4.65802 15.4332 4.68394 15.5122 4.73286C15.5913 4.78179 15.6551 4.85178 15.6966 4.93499L16.4516 6.46999C16.4871 6.54277 16.5399 6.60583 16.6052 6.65374C16.6705 6.70164 16.7465 6.73295 16.8266 6.74499L18.5166 6.98999C18.6096 7.00265 18.6972 7.04123 18.7693 7.10133C18.8414 7.16142 18.8951 7.2406 18.9243 7.32981C18.9535 7.41901 18.9571 7.51464 18.9345 7.60575C18.9119 7.69685 18.8641 7.77976 18.7966 7.84499L17.5716 9.03499C17.5142 9.0962 17.4731 9.17087 17.4521 9.25214C17.4311 9.3334 17.431 9.41864 17.4516 9.49999L17.7416 11.185C17.7568 11.2767 17.7462 11.3709 17.7109 11.4569C17.6755 11.5429 17.6169 11.6174 17.5416 11.6719C17.4663 11.7265 17.3773 11.7589 17.2845 11.7656C17.1918 11.7724 17.099 11.7531 17.0166 11.71L15.5166 10.915C15.4424 10.868 15.3571 10.8414 15.2693 10.8379C15.1815 10.8344 15.0943 10.8541 15.0166 10.895Z" fill="#EBCB00"/>
<path d="M15.7966 9.67498L14.2966 10.47C14.2142 10.5131 14.1214 10.5324 14.0287 10.5256C13.9359 10.5189 13.8469 10.4864 13.7716 10.4319C13.6962 10.3774 13.6376 10.3029 13.6023 10.2169C13.567 10.1309 13.5563 10.0367 13.5716 9.94498L13.8566 8.25998C13.8712 8.18001 13.8661 8.09769 13.8417 8.02015C13.8173 7.94261 13.7743 7.87218 13.7166 7.81498L12.4916 6.62498C12.4242 6.56008 12.3763 6.47757 12.3535 6.38683C12.3307 6.2961 12.3337 6.20077 12.3624 6.1117C12.391 6.02263 12.4441 5.94338 12.5156 5.88297C12.587 5.82256 12.674 5.78341 12.7666 5.76998L14.4516 5.52498C14.5317 5.51295 14.6077 5.48163 14.673 5.43373C14.7383 5.38582 14.791 5.32276 14.8266 5.24998L15.5816 3.71498C15.6225 3.63044 15.6864 3.55915 15.766 3.50926C15.8456 3.45938 15.9377 3.43292 16.0316 3.43292C16.1255 3.43292 16.2175 3.45938 16.2971 3.50926C16.3767 3.55915 16.4406 3.63044 16.4816 3.71498L17.2366 5.24998C17.2721 5.32276 17.3248 5.38582 17.3902 5.43373C17.4555 5.48163 17.5315 5.51295 17.6116 5.52498L19.3066 5.76998C19.3992 5.78341 19.4861 5.82256 19.5576 5.88297C19.6291 5.94338 19.6821 6.02263 19.7108 6.1117C19.7394 6.20077 19.7425 6.2961 19.7197 6.38683C19.6968 6.47757 19.649 6.56008 19.5816 6.62498L18.3566 7.81498C18.2979 7.87169 18.2541 7.9419 18.2288 8.01946C18.2035 8.09703 18.1976 8.1796 18.2116 8.25998L18.5016 9.94498C18.5168 10.0367 18.5062 10.1309 18.4709 10.2169C18.4355 10.3029 18.3769 10.3774 18.3016 10.4319C18.2263 10.4864 18.1372 10.5189 18.0445 10.5256C17.9518 10.5324 17.859 10.5131 17.7766 10.47L16.2766 9.67498C16.203 9.63471 16.1205 9.61361 16.0366 9.61361C15.9527 9.61361 15.8702 9.63471 15.7966 9.67498Z" fill="#FFFACF"/>
<path d="M18.3566 9.10002L16.8266 8.29502C16.7259 8.24075 16.6134 8.21234 16.4991 8.21234C16.3847 8.21234 16.2722 8.24075 16.1716 8.29502L14.0466 9.41002C13.9218 9.47936 13.7783 9.50737 13.6366 9.49002L13.5566 9.94502C13.5407 10.0374 13.551 10.1324 13.5866 10.2192C13.6221 10.306 13.6813 10.3811 13.7574 10.4358C13.8335 10.4906 13.9235 10.5228 14.0171 10.5289C14.1106 10.5349 14.204 10.5145 14.2866 10.47L15.7866 9.67502C15.8583 9.63735 15.9381 9.61767 16.0191 9.61767C16.1001 9.61767 16.1799 9.63735 16.2516 9.67502L17.7516 10.47C17.834 10.5131 17.9268 10.5324 18.0195 10.5257C18.1122 10.5189 18.2013 10.4865 18.2766 10.4319C18.3519 10.3774 18.4105 10.3029 18.4458 10.2169C18.4812 10.1309 18.4918 10.0367 18.4766 9.94502L18.3566 9.10002Z" fill="#FFF48C"/>
<path d="M15.7966 9.67498L14.2966 10.47C14.2142 10.5131 14.1214 10.5324 14.0287 10.5256C13.9359 10.5189 13.8469 10.4864 13.7716 10.4319C13.6962 10.3774 13.6376 10.3029 13.6023 10.2169C13.567 10.1309 13.5563 10.0367 13.5716 9.94498L13.8566 8.25998C13.8712 8.18001 13.8661 8.09769 13.8417 8.02015C13.8173 7.94261 13.7743 7.87218 13.7166 7.81498L12.4916 6.62498C12.4242 6.56008 12.3763 6.47757 12.3535 6.38683C12.3307 6.2961 12.3337 6.20077 12.3624 6.1117C12.391 6.02263 12.4441 5.94338 12.5156 5.88297C12.587 5.82256 12.674 5.78341 12.7666 5.76998L14.4516 5.52498C14.5317 5.51295 14.6077 5.48163 14.673 5.43373C14.7383 5.38582 14.791 5.32276 14.8266 5.24998L15.5816 3.71498C15.6225 3.63044 15.6864 3.55915 15.766 3.50926C15.8456 3.45938 15.9377 3.43292 16.0316 3.43292C16.1255 3.43292 16.2175 3.45938 16.2971 3.50926C16.3767 3.55915 16.4406 3.63044 16.4816 3.71498L17.2366 5.24998C17.2721 5.32276 17.3248 5.38582 17.3902 5.43373C17.4555 5.48163 17.5315 5.51295 17.6116 5.52498L19.3066 5.76998C19.3992 5.78341 19.4861 5.82256 19.5576 5.88297C19.6291 5.94338 19.6821 6.02263 19.7108 6.1117C19.7394 6.20077 19.7425 6.2961 19.7197 6.38683C19.6968 6.47757 19.649 6.56008 19.5816 6.62498L18.3566 7.81498C18.2979 7.87169 18.2541 7.9419 18.2288 8.01946C18.2035 8.09703 18.1976 8.1796 18.2116 8.25998L18.5016 9.94498C18.5168 10.0367 18.5062 10.1309 18.4709 10.2169C18.4355 10.3029 18.3769 10.3774 18.3016 10.4319C18.2263 10.4864 18.1372 10.5189 18.0445 10.5256C17.9518 10.5324 17.859 10.5131 17.7766 10.47L16.2766 9.67498C16.203 9.63471 16.1205 9.61361 16.0366 9.61361C15.9527 9.61361 15.8702 9.63471 15.7966 9.67498Z" stroke="#45413C" stroke-width="0.5" stroke-linecap="round" stroke-linejoin="round"/>
<path d="M6.8866 10.895L8.3866 11.69C8.469 11.7331 8.56178 11.7524 8.65453 11.7456C8.74727 11.7389 8.8363 11.7065 8.91162 11.6519C8.98694 11.5974 9.04555 11.5229 9.08088 11.4369C9.1162 11.3509 9.12684 11.2567 9.1116 11.165L8.8366 9.49999C8.82263 9.41961 8.82855 9.33704 8.85382 9.25947C8.87909 9.18191 8.92296 9.1117 8.9816 9.05499L10.2066 7.86499C10.2766 7.80186 10.3274 7.72023 10.353 7.6295C10.3786 7.53876 10.3781 7.44264 10.3514 7.3522C10.3248 7.26177 10.2731 7.18071 10.2023 7.11839C10.1316 7.05607 10.0447 7.01503 9.9516 6.99999L8.2616 6.75499C8.18149 6.74296 8.10551 6.71164 8.04019 6.66374C7.97486 6.61583 7.92216 6.55277 7.8866 6.47999L7.1016 4.93499C7.06013 4.85178 6.99629 4.78179 6.91724 4.73286C6.83819 4.68394 6.74707 4.65802 6.6541 4.65802C6.56114 4.65802 6.47001 4.68394 6.39096 4.73286C6.31191 4.78179 6.24807 4.85178 6.2066 4.93499L5.4516 6.46999C5.41605 6.54277 5.36334 6.60583 5.29802 6.65374C5.23269 6.70164 5.15671 6.73295 5.0766 6.74499L3.3816 6.99999C3.28859 7.01265 3.20103 7.05123 3.12892 7.11133C3.05681 7.17142 3.00308 7.2506 2.97387 7.33981C2.94465 7.42901 2.94114 7.52464 2.96373 7.61575C2.98632 7.70685 3.0341 7.78976 3.1016 7.85499L4.3266 9.04499C4.38328 9.10468 4.42434 9.17744 4.44615 9.25681C4.46796 9.33619 4.46983 9.41972 4.4516 9.49999L4.1616 11.185C4.14636 11.2767 4.157 11.3709 4.19233 11.4569C4.22765 11.5429 4.28627 11.6174 4.36158 11.6719C4.4369 11.7265 4.52593 11.7589 4.61868 11.7656C4.71142 11.7724 4.80421 11.7531 4.8866 11.71L6.3866 10.915C6.46084 10.868 6.54614 10.8414 6.63392 10.8379C6.7217 10.8344 6.80885 10.8541 6.8866 10.895Z" fill="#EBCB00"/>
<path d="M6.1066 9.67498L7.6066 10.47C7.68899 10.5131 7.78178 10.5324 7.87452 10.5256C7.96727 10.5189 8.0563 10.4864 8.13162 10.4319C8.20693 10.3774 8.26554 10.3029 8.30087 10.2169C8.3362 10.1309 8.34684 10.0367 8.3316 9.94498L8.0466 8.25998C8.032 8.18001 8.03712 8.09769 8.06152 8.02015C8.08591 7.94261 8.12885 7.87218 8.1866 7.81498L9.4116 6.62498C9.479 6.56008 9.52684 6.47757 9.54968 6.38683C9.57252 6.2961 9.56943 6.20077 9.54078 6.1117C9.51214 6.02263 9.45907 5.94338 9.38762 5.88297C9.31616 5.82256 9.2292 5.78341 9.1366 5.76998L7.4516 5.52498C7.37149 5.51295 7.29551 5.48163 7.23018 5.43373C7.16486 5.38582 7.11215 5.32276 7.0766 5.24998L6.3216 3.71498C6.28066 3.63044 6.21673 3.55915 6.13714 3.50926C6.05756 3.45938 5.96553 3.43292 5.8716 3.43292C5.77767 3.43292 5.68564 3.45938 5.60605 3.50926C5.52647 3.55915 5.46254 3.63044 5.4216 3.71498L4.6666 5.24998C4.63104 5.32276 4.57834 5.38582 4.51301 5.43373C4.44769 5.48163 4.37171 5.51295 4.2916 5.52498L2.5966 5.76998C2.504 5.78341 2.41703 5.82256 2.34558 5.88297C2.27413 5.94338 2.22106 6.02263 2.19241 6.1117C2.16376 6.20077 2.16068 6.2961 2.18352 6.38683C2.20636 6.47757 2.2542 6.56008 2.3216 6.62498L3.5466 7.81498C3.60524 7.87169 3.64911 7.9419 3.67438 8.01946C3.69965 8.09703 3.70557 8.1796 3.6916 8.25998L3.4016 9.94498C3.38636 10.0367 3.397 10.1309 3.43232 10.2169C3.46765 10.3029 3.52626 10.3774 3.60158 10.4319C3.6769 10.4864 3.76593 10.5189 3.85867 10.5256C3.95142 10.5324 4.0442 10.5131 4.1266 10.47L5.6266 9.67498C5.70018 9.63471 5.78272 9.61361 5.8666 9.61361C5.95048 9.61361 6.03301 9.63471 6.1066 9.67498Z" fill="#FFFACF"/>
<path d="M3.54661 9.10002L5.07661 8.29502C5.17724 8.24075 5.28978 8.21234 5.40411 8.21234C5.51844 8.21234 5.63097 8.24075 5.73161 8.29502L7.85661 9.41002C7.98137 9.47936 8.12492 9.50737 8.2666 9.49002L8.34661 9.94502C8.36252 10.0374 8.35213 10.1324 8.31663 10.2192C8.28112 10.306 8.22192 10.3811 8.14579 10.4358C8.06967 10.4906 7.97968 10.5228 7.88611 10.5289C7.79253 10.5349 7.69915 10.5145 7.61661 10.47L6.11661 9.67502C6.04489 9.63735 5.96511 9.61767 5.88411 9.61767C5.8031 9.61767 5.72332 9.63735 5.65161 9.67502L4.15161 10.47C4.06865 10.5204 3.97281 10.5456 3.87579 10.5425C3.77877 10.5393 3.68476 10.508 3.60524 10.4523C3.52571 10.3967 3.46411 10.3191 3.42795 10.229C3.39179 10.1389 3.38264 10.0402 3.40161 9.94502L3.54661 9.10002Z" fill="#FFF48C"/>
<path d="M6.1066 9.67498L7.6066 10.47C7.68899 10.5131 7.78178 10.5324 7.87452 10.5256C7.96727 10.5189 8.0563 10.4864 8.13162 10.4319C8.20693 10.3774 8.26555 10.3029 8.30087 10.2169C8.3362 10.1309 8.34684 10.0367 8.3316 9.94498L8.0466 8.25998C8.032 8.18001 8.03712 8.09769 8.06152 8.02015C8.08591 7.94261 8.12885 7.87218 8.1866 7.81498L9.4116 6.62498C9.479 6.56008 9.52684 6.47757 9.54968 6.38683C9.57252 6.2961 9.56943 6.20077 9.54078 6.1117C9.51214 6.02263 9.45907 5.94338 9.38762 5.88297C9.31616 5.82256 9.2292 5.78341 9.1366 5.76998L7.4516 5.52498C7.37149 5.51295 7.29551 5.48163 7.23018 5.43373C7.16486 5.38582 7.11215 5.32276 7.0766 5.24998L6.3216 3.71498C6.28066 3.63044 6.21673 3.55915 6.13714 3.50926C6.05756 3.45938 5.96553 3.43292 5.8716 3.43292C5.77767 3.43292 5.68564 3.45938 5.60605 3.50926C5.52647 3.55915 5.46254 3.63044 5.4216 3.71498L4.6666 5.24998C4.63104 5.32276 4.57834 5.38582 4.51301 5.43373C4.44769 5.48163 4.37171 5.51295 4.2916 5.52498L2.5966 5.76998C2.504 5.78341 2.41703 5.82256 2.34558 5.88297C2.27413 5.94338 2.22106 6.02263 2.19241 6.1117C2.16376 6.20077 2.16068 6.2961 2.18352 6.38683C2.20636 6.47757 2.2542 6.56008 2.3216 6.62498L3.5466 7.81498C3.60524 7.87169 3.64911 7.9419 3.67438 8.01946C3.69965 8.09703 3.70557 8.1796 3.6916 8.25998L3.4016 9.94498C3.38636 10.0367 3.397 10.1309 3.43232 10.2169C3.46765 10.3029 3.52626 10.3774 3.60158 10.4319C3.6769 10.4864 3.76593 10.5189 3.85867 10.5256C3.95142 10.5324 4.0442 10.5131 4.1266 10.47L5.6266 9.67498C5.70018 9.63471 5.78272 9.61361 5.8666 9.61361C5.95048 9.61361 6.03301 9.63471 6.1066 9.67498V9.67498Z" stroke="#45413C" stroke-width="0.5" stroke-linecap="round" stroke-linejoin="round"/>
<path d="M10.9516 19.25C12.2675 19.2787 13.5493 18.8302 14.5602 17.9875C15.5712 17.1447 16.243 15.9645 16.4516 14.665C16.4602 14.5877 16.4507 14.5096 16.4237 14.4367C16.3968 14.3638 16.3533 14.2981 16.2966 14.245C16.2353 14.1905 16.1627 14.1502 16.0841 14.1269C16.0055 14.1036 15.9227 14.0978 15.8416 14.11C12.6057 14.63 9.30752 14.63 6.07161 14.11C5.99051 14.0978 5.90773 14.1036 5.8291 14.1269C5.75048 14.1502 5.67794 14.1905 5.61661 14.245C5.55992 14.2981 5.51639 14.3638 5.48948 14.4367C5.46258 14.5096 5.45303 14.5877 5.46161 14.665C5.66997 15.9628 6.34034 17.1416 7.34921 17.9841C8.35807 18.8267 9.63745 19.2762 10.9516 19.25Z" fill="white" stroke="#45413C" stroke-width="0.5" stroke-linecap="round" stroke-linejoin="round"/>
<path d="M15.9516 16.25C14.339 16.7796 12.6486 17.0332 10.9516 17C9.25464 17.0325 7.56434 16.779 5.9516 16.25" fill="white"/>
<path d="M15.9516 16.25C14.339 16.7796 12.6486 17.0332 10.9516 17C9.25464 17.0325 7.56434 16.779 5.9516 16.25" stroke="#45413C" stroke-width="0.5" stroke-linecap="round" stroke-linejoin="round"/>
<path d="M10.9516 14.5V19.25" stroke="#45413C" stroke-width="0.5" stroke-linecap="round" stroke-linejoin="round"/>
<path d="M7.70159 14.33C7.70159 14.63 7.67659 17.205 8.23159 18.575" stroke="#45413C" stroke-width="0.5" stroke-linecap="round" stroke-linejoin="round"/>
<path d="M14.2016 14.33C14.2016 14.63 14.2266 17.205 13.6716 18.575" stroke="#45413C" stroke-width="0.5" stroke-linecap="round" stroke-linejoin="round"/>
</svg>
