<svg width="25" height="24" viewBox="0 0 25 24" fill="none" xmlns="http://www.w3.org/2000/svg">
<path d="M0.75 10.75C0.75 13.4022 1.80357 15.9457 3.67893 17.8211C5.5543 19.6964 8.09784 20.75 10.75 20.75C13.4022 20.75 15.9457 19.6964 17.8211 17.8211C19.6964 15.9457 20.75 13.4022 20.75 10.75C20.75 8.09784 19.6964 5.5543 17.8211 3.67893C15.9457 1.80357 13.4022 0.75 10.75 0.75C8.09784 0.75 5.5543 1.80357 3.67893 3.67893C1.80357 5.5543 0.75 8.09784 0.75 10.75Z" fill="#FFE500"/>
<path d="M10.75 0.75C8.77219 0.75 6.83879 1.33649 5.1943 2.4353C3.54981 3.53412 2.26809 5.0959 1.51121 6.92317C0.754333 8.75043 0.556299 10.7611 0.942152 12.7009C1.328 14.6407 2.28041 16.4225 3.67894 17.8211C5.07746 19.2196 6.85929 20.172 8.7991 20.5579C10.7389 20.9437 12.7496 20.7457 14.5768 19.9888C16.4041 19.2319 17.9659 17.9502 19.0647 16.3057C20.1635 14.6612 20.75 12.7278 20.75 10.75C20.75 8.09784 19.6964 5.5543 17.8211 3.67893C15.9457 1.80357 13.4022 0.75 10.75 0.75ZM10.75 19.25C8.94525 19.25 7.18102 18.7148 5.68043 17.7122C4.17983 16.7095 3.01025 15.2844 2.3196 13.617C1.62895 11.9496 1.44825 10.1149 1.80034 8.3448C2.15243 6.57472 3.0215 4.9488 4.29766 3.67265C5.57381 2.3965 7.19973 1.52742 8.96981 1.17533C10.7399 0.823244 12.5746 1.00395 14.242 1.6946C15.9094 2.38525 17.3345 3.55482 18.3372 5.05542C19.3398 6.55602 19.875 8.32025 19.875 10.125C19.875 12.5451 18.9136 14.8661 17.2024 16.5773C15.4911 18.2886 13.1701 19.25 10.75 19.25Z" fill="#EBCB00"/>
<path d="M7.75 2.75C7.75 2.84849 7.8276 2.94602 7.97836 3.03701C8.12913 3.12801 8.3501 3.21069 8.62868 3.28033C8.90726 3.34997 9.23797 3.40522 9.60195 3.44291C9.96593 3.4806 10.356 3.5 10.75 3.5C11.144 3.5 11.5341 3.4806 11.8981 3.44291C12.262 3.40522 12.5927 3.34997 12.8713 3.28033C13.1499 3.21069 13.3709 3.12801 13.5216 3.03701C13.6724 2.94602 13.75 2.84849 13.75 2.75C13.75 2.65151 13.6724 2.55398 13.5216 2.46299C13.3709 2.37199 13.1499 2.28931 12.8713 2.21967C12.5927 2.15003 12.262 2.09478 11.8981 2.05709C11.5341 2.0194 11.144 2 10.75 2C10.356 2 9.96593 2.0194 9.60195 2.05709C9.23797 2.09478 8.90726 2.15003 8.62868 2.21967C8.3501 2.28931 8.12913 2.37199 7.97836 2.46299C7.8276 2.55398 7.75 2.65151 7.75 2.75Z" fill="#FFF48C"/>
<path opacity="0.15" d="M2.75 22.75C2.75 22.9489 3.59285 23.1397 5.09315 23.2803C6.59344 23.421 8.62827 23.5 10.75 23.5C12.8717 23.5 14.9066 23.421 16.4069 23.2803C17.9071 23.1397 18.75 22.9489 18.75 22.75C18.75 22.5511 17.9071 22.3603 16.4069 22.2197C14.9066 22.079 12.8717 22 10.75 22C8.62827 22 6.59344 22.079 5.09315 22.2197C3.59285 22.3603 2.75 22.5511 2.75 22.75Z" fill="#45413C"/>
<path d="M0.75 10.75C0.75 13.4022 1.80357 15.9457 3.67893 17.8211C5.5543 19.6964 8.09784 20.75 10.75 20.75C13.4022 20.75 15.9457 19.6964 17.8211 17.8211C19.6964 15.9457 20.75 13.4022 20.75 10.75C20.75 8.09784 19.6964 5.5543 17.8211 3.67893C15.9457 1.80357 13.4022 0.75 10.75 0.75C8.09784 0.75 5.5543 1.80357 3.67893 3.67893C1.80357 5.5543 0.75 8.09784 0.75 10.75V10.75Z" stroke="#45413C" stroke-width="0.5" stroke-linecap="round" stroke-linejoin="round"/>
<path d="M18 13.25C18 13.665 17.44 14 16.75 14C16.06 14 15.5 13.665 15.5 13.25C15.5 12.835 16.06 12.5 16.75 12.5C17.44 12.5 18 12.835 18 13.25Z" fill="#FFAA54"/>
<path d="M3.5 13.25C3.5 13.665 4.06 14 4.75 14C5.44 14 6 13.665 6 13.25C6 12.835 5.44 12.5 4.75 12.5C4.06 12.5 3.5 12.835 3.5 13.25Z" fill="#FFAA54"/>
<path d="M3.75 11.375C3.75 11.1429 3.84219 10.9204 4.00628 10.7563C4.17038 10.5922 4.39294 10.5 4.625 10.5C4.85706 10.5 5.07962 10.5922 5.24372 10.7563C5.40781 10.9204 5.5 11.1429 5.5 11.375" stroke="#45413C" stroke-width="0.5" stroke-linecap="round" stroke-linejoin="round"/>
<path d="M16 11.375C16 11.1429 16.0922 10.9204 16.2563 10.7563C16.4204 10.5922 16.6429 10.5 16.875 10.5C17.1071 10.5 17.3296 10.5922 17.4937 10.7563C17.6578 10.9204 17.75 11.1429 17.75 11.375" stroke="#45413C" stroke-width="0.5" stroke-linecap="round" stroke-linejoin="round"/>
<path d="M21.835 15.335L24.105 14.575C24.1468 14.5601 24.1829 14.5326 24.2085 14.4964C24.234 14.4601 24.2478 14.4168 24.2478 14.3725C24.2478 14.3281 24.234 14.2849 24.2085 14.2486C24.1829 14.2124 24.1468 14.1849 24.105 14.17L22.24 13.55C22.1132 13.507 21.9983 13.4348 21.9045 13.3393C21.8107 13.2438 21.7407 13.1275 21.7 13L21.08 11.135C21.0647 11.0928 21.0369 11.0563 21.0002 11.0304C20.9636 11.0045 20.9199 10.9904 20.875 10.99C20.8306 10.9899 20.7874 11.0039 20.7514 11.03C20.7155 11.056 20.6887 11.0928 20.675 11.135L20.05 13C20.0084 13.1286 19.9368 13.2455 19.8412 13.3412C19.7456 13.4368 19.6286 13.5083 19.5 13.55L17.635 14.17C17.5932 14.1849 17.5571 14.2124 17.5315 14.2486C17.506 14.2849 17.4922 14.3281 17.4922 14.3725C17.4922 14.4168 17.506 14.4601 17.5315 14.4964C17.5571 14.5326 17.5932 14.5601 17.635 14.575L19.5 15.2C19.6257 15.242 19.7399 15.3126 19.8336 15.4064C19.9274 15.5001 19.998 15.6143 20.04 15.74L20.665 17.605C20.6787 17.6472 20.7055 17.684 20.7414 17.71C20.7774 17.7361 20.8206 17.7501 20.865 17.75C20.9099 17.7496 20.9536 17.7355 20.9902 17.7096C21.0269 17.6837 21.0547 17.6472 21.07 17.605L21.835 15.335Z" fill="white" stroke="#45413C" stroke-width="0.5" stroke-linecap="round" stroke-linejoin="round"/>
<path d="M10.75 18.275C15.35 18.275 15.965 16.355 15.695 14.775C15.637 14.5389 15.5292 14.3179 15.3788 14.1268C15.2283 13.9358 15.0388 13.7792 14.8229 13.6674C14.6069 13.5556 14.3696 13.4914 14.1268 13.4789C13.8839 13.4664 13.6413 13.506 13.415 13.595C12.5559 13.881 11.6554 14.0229 10.75 14.015C9.84458 14.0229 8.94409 13.881 8.08499 13.595C7.85873 13.506 7.61604 13.4664 7.37322 13.4789C7.1304 13.4914 6.89305 13.5556 6.67712 13.6674C6.46118 13.7792 6.27164 13.9358 6.12122 14.1268C5.9708 14.3179 5.86298 14.5389 5.80499 14.775C5.53499 16.355 6.14999 18.275 10.75 18.275Z" fill="white" stroke="#45413C" stroke-width="0.5" stroke-linecap="round" stroke-linejoin="round"/>
<path d="M15.74 15.14C15.0091 15.4737 14.2348 15.7027 13.44 15.82C12.5506 15.9633 11.6508 16.0318 10.75 16.025C9.84919 16.0318 8.94939 15.9633 8.06001 15.82C7.26517 15.7027 6.49087 15.4737 5.76001 15.14" stroke="#45413C" stroke-width="0.5" stroke-linecap="round" stroke-linejoin="round"/>
<path d="M8.39 13.695L8.06 15.82L7.745 17.865" stroke="#45413C" stroke-width="0.5" stroke-linecap="round" stroke-linejoin="round"/>
<path d="M10.75 18.275V14.025" stroke="#45413C" stroke-width="0.5" stroke-linecap="round" stroke-linejoin="round"/>
<path d="M13.115 13.695L13.44 15.82L13.755 17.865" stroke="#45413C" stroke-width="0.5" stroke-linecap="round" stroke-linejoin="round"/>
</svg>
